<svg id="Full_Image" data-name="Full Image" xmlns="http://www.w3.org/2000/svg" xmlns:xlink="http://www.w3.org/1999/xlink" viewBox="0 0 206 309"><defs><style>.cls-1{fill:#e3e3e3;stroke:#000;stroke-miterlimit:10;}.cls-2{fill:#1f1f1f;}.cls-3{fill:url(#radial-gradient);}.cls-4{fill:url(#radial-gradient-2);}.cls-5{fill:#eee;}.cls-6{fill:#888;}.cls-7,.cls-8{fill:none;}.cls-7{stroke:url(#linear-gradient);}.cls-8{stroke:url(#radial-gradient-3);}.cls-9{font-size:19.57px;}.cls-11,.cls-9{font-family:Stencil, Stencil;}.cls-10{fill:url(#radial-gradient-4);}.cls-11{font-size:23.27px;fill:#fff;}</style><radialGradient id="radial-gradient" cx="810.28" cy="352.6" r="181.57" gradientTransform="matrix(0.34, 0.03, 0.03, -0.32, -209.37, 162.23)" gradientUnits="userSpaceOnUse"><stop offset="0" stop-color="#3a3a3a"/><stop offset="1" stop-color="#323232"/></radialGradient><radialGradient id="radial-gradient-2" cx="811.56" cy="351.28" r="181.12" xlink:href="#radial-gradient"/><linearGradient id="linear-gradient" x1="989.01" y1="363.88" x2="966.29" y2="281.48" gradientTransform="matrix(0.31, 0, 0, -0.31, -200.06, 165.8)" gradientUnits="userSpaceOnUse"><stop offset="0" stop-color="#fdfdfd"/><stop offset="1" stop-color="#4a4a4a" stop-opacity="0"/></linearGradient><radialGradient id="radial-gradient-3" cx="169.14" cy="658.33" r="57.4" gradientTransform="matrix(1.24, 0.59, 0.16, -0.33, -259.81, 149.58)" gradientUnits="userSpaceOnUse"><stop offset="0" stop-color="#eee"/><stop offset="1" stop-color="#eee" stop-opacity="0"/></radialGradient><radialGradient id="radial-gradient-4" cx="70.86" cy="238.56" r="58.33" gradientTransform="matrix(1, 0, 0, 1, 0, 0)" xlink:href="#radial-gradient"/></defs><title>Artboard 1</title><rect id="Background" class="cls-1" x="0.5" y="0.5" width="206" height="309"/><g id="Cinema"><path class="cls-2" d="M53.71,47.13a8.87,8.87,0,0,0-8.36,6.43L43.9,58.63l1.33.38h0L51.8,61l.09-.06,9.66,2.76,3.84,1.16.06,0,12.29,3.51,1.18.35v0l7,2h0l1.86.52L99,74.37l0,0,4.91,1.36,8.27,2.36-.05,0,6.46,1.8h0L146,87.78v2H133.64l0-1h-6.56v1h-7.38v-1h-6.57v1H105.8v-1l-6.54,1H92v-1H85v1H71v-1H64.58v1H58v-1H50.9v1H42L42.15,157A8.87,8.87,0,0,0,51,165.81H150s8.86-4.41,8-9.32V98a3.88,3.88,0,0,0,1-2.39V82.93s0-.19,0-.29a6.39,6.39,0,0,0-.76-3.17h0l-.24-.4A6.92,6.92,0,0,0,156.35,77a9,9,0,0,0-3.61-2l-8.55-2.45.11-.09L140,71.36,131.59,69l0,0-1.87-.48L118.45,65.2l.07-.06-2.64-.67-10.58-3,.1-.07L102,60.52l-45.66-13a8.88,8.88,0,0,0-2.68-.36Z"/><path class="cls-2" d="M152.47,74.65h0C148.89,74.66,146,78,146,82l0,12.7c0,4.07,2.92,7.36,6.5,7.35h0c3.58,0,6.48-3.31,6.47-7.37L159,82C159,77.93,156.05,74.64,152.47,74.65Z"/><path class="cls-3" d="M152.74,74.05a8.88,8.88,0,0,1,5.5,4.48h0a6.18,6.18,0,0,1,.55,4.6c-1.07,3.75-5.72,5.7-10.39,4.37l-.11,0L43.9,57.69l1.45-5.08a8.88,8.88,0,0,1,11-6.07l96.37,27.51Z"/><path class="cls-4" d="M42,88.81,42.15,156A8.87,8.87,0,0,0,51,164.81l99.11-.22A8.87,8.87,0,0,0,159,155.7l-.15-66.89"/><path class="cls-5" d="M105.82,88.81l-6.41,0,8.81,13h6.56l-9-13Zm7.38,0,8.84,13h7l-9.66-14-6.3,1Zm13.94,0,8.85,13h7l-9.66-14-6.31,1Zm-82.72,0,8.84,13h7l-9.66-14-6.31,1Zm13.68,0,8.83,13h7l-9.66-14-6.3,1Zm13.7,0,8.83,13h7.05L78,87.81l-6.31,1Zm13.73,0,8.83,13h7l-9.66-14-6.29,1Z"/><path class="cls-5" d="M137.85,69.86,124.78,80.75l6.46,1.8,13.06-11-6.45-1.64Z"/><path class="cls-5" d="M125.19,66.32l-13.07,10.9,6.46,1.8L131.64,68l-6.45-1.64Z"/><path class="cls-5" d="M112.06,62.56,99,73.45l6.46,1.8,13.06-11-6.45-1.64h0Z"/><path class="cls-5" d="M98.94,58.79,85.88,69.68l6.46,1.8L105.4,60.43l-6.46-1.64Z"/><path class="cls-5" d="M85.66,55.06,72.48,65.82l6.44,1.86L92.1,56.77l-6.44-1.71Z"/><path class="cls-5" d="M72.26,51.33,59,61.94l6.42,1.94L78.68,53.11l-6.42-1.78Z"/><path class="cls-5" d="M58.91,47.29,45.2,58.07l6.6,2L65.3,49.19l-6.39-1.9Z"/><path class="cls-5" d="M42,100.81v2H158v-2Zm0,10v2l39-.09,0,22.09-39,.09v.91l58-.13,0,8.13H42v2h58v8H42v2H159v-2H102v-8h56v-2l-57,.13,0-8.13,57-.13v-.87l-37,.08,0-22.08H158v-2Zm41,2,37.05-.08,0,22.08-37,.08Z"/><path class="cls-5" d="M47.94,104.07a.87.87,0,0,1,0,.28.72.72,0,0,1-.14.24,1,1,0,0,1-.26.16,1,1,0,0,1-.36.06H46v1h0v-2h1.1a1.4,1.4,0,0,1,.38,0,.72.72,0,0,1,.26.14.57.57,0,0,1,.15.23.88.88,0,0,1,0,.29m-.47-.18a.33.33,0,0,0-.11-.26,1.4,1.4,0,0,1-.31-.27h0v1h.07a.24.24,0,0,1,.18-.12.36.36,0,0,0,.12-.08.25.25,0,0,0,.08-.12.61.61,0,0,0,0-.15"/><path class="cls-5" d="M49.81,105.66l-.52-.85H49v1h0v-2h.39c.14-.19.26-.18.36-.14a.68.68,0,0,1,.27.13.51.51,0,0,1,.15.21.59.59,0,0,1,0,.27.8.8,0,0,1,0,.23.72.72,0,0,1-.11.19.47.47,0,0,1-.15.13.5.5,0,0,1-.2.08l.61.9H50m-.25-1.51a.26.26,0,0,0-.11-.24.9.9,0,0,1-.3-.25H49v1h.35c.07-.17.13-.18.18-.19a.4.4,0,0,0,.13-.07.41.41,0,0,0,.07-.11.32.32,0,0,0,0-.14"/><path class="cls-5" d="M52.8,104.72a1.51,1.51,0,0,1-.08.48,1.09,1.09,0,0,1-.22.36,1,1,0,0,1-.36.24,1.4,1.4,0,0,1-.47.08,1.5,1.5,0,0,1-.5-.08,1.09,1.09,0,0,1-.35-.24,1.23,1.23,0,0,1-.21-.37,1.39,1.39,0,0,1-.07-.46,1.43,1.43,0,0,1,.07-.48,1,1,0,0,1,.22-.36,1,1,0,0,1,.35-.23,1.42,1.42,0,0,1,.48-.08,1.44,1.44,0,0,1,.49.08,1,1,0,0,1,.35.23,1,1,0,0,1,.22.36,1.4,1.4,0,0,1,.08.47m-.48,0a1.07,1.07,0,0,0,0-.32.55.55,0,0,0-.12-.24A.53.53,0,0,0,52,104a.88.88,0,0,0-.29,0,.64.64,0,0,0-.28.06.51.51,0,0,0-.21.15.83.83,0,0,0-.12.25,1,1,0,0,0,0,.31,1,1,0,0,0,0,.32.66.66,0,0,0,.13.25.55.55,0,0,0,.2.17.64.64,0,0,0,.28.05.85.85,0,0,0,.3-.05.67.67,0,0,0,.2-.17.53.53,0,0,0,.12-.25,1.08,1.08,0,0,0,0-.32"/><path class="cls-5" d="M55.14,104.71a1.44,1.44,0,0,1-.08.49,1.11,1.11,0,0,1-.23.36,1,1,0,0,1-.35.21.67.67,0,0,1-.42,0H53v-2h1a.4.4,0,0,1,.47-.14,1.15,1.15,0,0,1,.38.2,1,1,0,0,1,.24.35,1.19,1.19,0,0,1,.09.49m-.47,0a1,1,0,0,0-.05-.33.66.66,0,0,0-.15-.23.68.68,0,0,0-.23-.14.39.39,0,0,1-.29-.2h0v2h0c.09-.33.18-.34.26-.38a.56.56,0,0,0,.2-.14.68.68,0,0,0,.14-.25,1,1,0,0,0,.05-.33"/><path class="cls-5" d="M55,105.81v-1h1v1h0"/><path class="cls-5" d="M58,105.84l-1-1.72s0,.09,0,.14v.13a.57.57,0,0,1,0,.13v1.29h0v-2h-.07l1,1.53s0-.1,0-.14a.66.66,0,0,1,0-.14c0-.06.1-.16.1-.16v-1.09h1v2H58"/><path class="cls-5" d="M60.92,104.7a1.21,1.21,0,0,1-.08.48,1.07,1.07,0,0,1-.22.37.89.89,0,0,1-.36.23,1.13,1.13,0,0,1-.47.08,1.23,1.23,0,0,1-.49-.08,1,1,0,0,1-.57-.61,1.64,1.64,0,0,1-.07-.46,1.73,1.73,0,0,1,.07-.48,1.09,1.09,0,0,1,.22-.36,1.15,1.15,0,0,1,.35-.22,1.3,1.3,0,0,1,.49-.09,1.42,1.42,0,0,1,.48.08,1.11,1.11,0,0,1,.36.23,1.09,1.09,0,0,1,.22.36,1.41,1.41,0,0,1,.07.47m-.48,0a1,1,0,0,0,0-.31.83.83,0,0,0-.12-.25.51.51,0,0,0-.21-.15.61.61,0,0,0-.28-.06.65.65,0,0,0-.29.06.5.5,0,0,0-.2.15.66.66,0,0,0-.13.25,1.47,1.47,0,0,0,0,.32,1.13,1.13,0,0,0,0,.32.72.72,0,0,0,.12.25.65.65,0,0,0,.21.16.61.61,0,0,0,.28.06.65.65,0,0,0,.29-.06.58.58,0,0,0,.21-.17.83.83,0,0,0,.12-.25,1.58,1.58,0,0,0,0-.32"/><path class="cls-5" d="M62,105.81v-1h0v1H61"/><path class="cls-5" d="M48.07,115.18a.87.87,0,0,1,0,.28.68.68,0,0,1-.17.21.83.83,0,0,1-.3.14,1.81,1.81,0,0,1-.43,0,1.64,1.64,0,0,1-.4,0,1.1,1.1,0,0,1-.29-.12.72.72,0,0,1-.2-.19.74.74,0,0,1-.1-.26l.45-.08a.58.58,0,0,0,.05.14l.1.1a.46.46,0,0,0,.16.07.88.88,0,0,0,.24,0,.69.69,0,0,0,.36-.08.22.22,0,0,0,.13-.22.25.25,0,0,0,0-.15.5.5,0,0,0-.14-.1.85.85,0,0,0-.19-.06l-.23-.05-.19,0-.18,0-.16-.08a.47.47,0,0,1-.13-.11.51.51,0,0,1-.09-.16.69.69,0,0,1,0-.22.52.52,0,0,1,.25-.48,1,1,0,0,1,.28-.11,2,2,0,0,1,.36,0,2,2,0,0,1,.37,0,.78.78,0,0,1,.26.1.58.58,0,0,1,.17.18.85.85,0,0,1,.09.24l-.45.07a.35.35,0,0,0-.15-.22.51.51,0,0,0-.3-.07l-.21,0a.39.39,0,0,0-.13.06.27.27,0,0,0-.07.08.43.43,0,0,0,0,.11.25.25,0,0,0,0,.13.31.31,0,0,0,.11.09l.17.06.22,0,.21.05.2,0,.17.08a.55.55,0,0,1,.14.12.54.54,0,0,1,.1.16.8.8,0,0,1,0,.23"/><path class="cls-5" d="M49.47,115.49a.72.72,0,0,0,.22,0,.69.69,0,0,0,.17-.1.53.53,0,0,0,.12-.14,1,1,0,0,0,.07-.15l.41.15a.94.94,0,0,1-.13.24.9.9,0,0,1-.19.2,1,1,0,0,1-.67.2,1.33,1.33,0,0,1-.51-.08,1,1,0,0,1-.35-.24,1.12,1.12,0,0,1-.21-.37,1.7,1.7,0,0,1-.06-.46,1.75,1.75,0,0,1,.06-.48.93.93,0,0,1,.21-.36.8.8,0,0,1,.34-.22,1.22,1.22,0,0,1,.49-.09,1.4,1.4,0,0,1,.38,0,.86.86,0,0,1,.29.13.9.9,0,0,1,.2.19,1.15,1.15,0,0,1,.12.25l-.41.12a.61.61,0,0,0-.07-.14.68.68,0,0,0-.12-.12.6.6,0,0,0-.16-.08.78.78,0,0,0-.22,0,.65.65,0,0,0-.29.06.5.5,0,0,0-.2.15.83.83,0,0,0-.12.25,1.51,1.51,0,0,0,0,.32,1.66,1.66,0,0,0,0,.32.77.77,0,0,0,.12.24.58.58,0,0,0,.21.17.67.67,0,0,0,.3.06"/><path class="cls-5" d="M51,115.81v-2h1v1h0v1H51"/><path class="cls-5" d="M54,115.81l-1-1.72s0,.1,0,.14v.13a.66.66,0,0,1,0,.14v1.31h0v-2h.47l1,1.5s0-.09,0-.14a.61.61,0,0,1,0-.14s.56-.15.56-.15v-1.07h0v2H54"/><path class="cls-5" d="M55,115.81v-2h2v1h0v1H55"/><path class="cls-5" d="M86.58,115.66l-.52-.85H85v1h0v-2h1.15c.14-.31.27-.29.37-.26a.9.9,0,0,1,.26.13.65.65,0,0,1,.16.21.82.82,0,0,1,0,.28.59.59,0,0,1,0,.23.4.4,0,0,1-.1.18.5.5,0,0,1-.15.14.7.7,0,0,1-.2.08l.61,1H87m-.48-1.62a.28.28,0,0,0-.11-.24,1.42,1.42,0,0,0-.3-.14H86v1h.12c.07-.28.13-.29.18-.31a.24.24,0,0,0,.12-.07.25.25,0,0,0,.08-.1.68.68,0,0,0,0-.14"/><path class="cls-5" d="M89.56,114.6a1.43,1.43,0,0,1-.07.48,1.1,1.1,0,0,1-.23.37.86.86,0,0,1-.35.23,1.41,1.41,0,0,1-.48.09,1.26,1.26,0,0,1-.49-.09,1,1,0,0,1-.35-.24,1,1,0,0,1-.21-.37,1.35,1.35,0,0,1-.07-.46,1.24,1.24,0,0,1,.07-.48.93.93,0,0,1,.21-.35,1,1,0,0,1,.36-.23,1.21,1.21,0,0,1,.48-.09,1.42,1.42,0,0,1,.48.08,1.11,1.11,0,0,1,.36.23,1.09,1.09,0,0,1,.22.36,1.41,1.41,0,0,1,.07.47m-.47,0a1,1,0,0,0,0-.31.83.83,0,0,0-.12-.25.51.51,0,0,0-.21-.15.61.61,0,0,0-.28-.06.68.68,0,0,0-.29.06.59.59,0,0,0-.2.15.65.65,0,0,0-.12.25,1,1,0,0,0,0,.32,1.12,1.12,0,0,0,0,.32,1,1,0,0,0,.12.25.65.65,0,0,0,.21.16.64.64,0,0,0,.28.06.7.7,0,0,0,.3-.06.55.55,0,0,0,.2-.17.83.83,0,0,0,.12-.25,1.55,1.55,0,0,0,0-.32"/><path class="cls-5" d="M90,115.81v-2h1v1h1v1H90"/><path class="cls-5" d="M92,115.81v-2h1v1h1v1H92"/><path class="cls-5" d="M124,113.81v2h-2v-2h1v-1h1v1h0"/><path class="cls-5" d="M126,115.38l-.2-.57H125l-.19,1h-.47l.81-2h.55l.82,2H126m-.49-1.64,0-.11,0-.11a.25.25,0,0,1,0-.07v0l0,.07a.23.23,0,0,1,0,.11l0,.11-.22.64h.64l-.22-.64"/><path class="cls-5" d="M128.08,115.64l-.8-1-.28.21v1h0v-2h1v.61l.27-.61h.55l-.95.54,1,1.46H128"/><path class="cls-5" d="M129,115.81v-2h2v1h-1v1h-1"/><path class="cls-5" d="M48.17,138.28a1.44,1.44,0,0,1-.08.49,1.11,1.11,0,0,1-.23.36,1,1,0,0,1-.35.21c-.13,0-.27.08-.42-.53H46v-2h1a.67.67,0,0,0,.48.44,1,1,0,0,1,.38.19,1,1,0,0,1,.24.35,1.19,1.19,0,0,1,.09.49m-.47,0a1,1,0,0,0-.05-.33.66.66,0,0,0-.15-.23.53.53,0,0,0-.23-.13c-.09,0-.19-.05-.29-.78h0v2h0c.1.24.19.23.26.2a.66.66,0,0,0,.21-.15.72.72,0,0,0,.14-.24,1.16,1.16,0,0,0,.05-.34"/><path class="cls-5" d="M48,139.81v-3h1v2h0"/><path class="cls-5" d="M51,139.66l-.52-.85H50v1h0v-3h.54c.14.36.26.38.37.41a.9.9,0,0,1,.26.13.65.65,0,0,1,.16.21.82.82,0,0,1,.05.28.59.59,0,0,1,0,.23.52.52,0,0,1-.1.18.54.54,0,0,1-.16.14.64.64,0,0,1-.19.08l.6.34H51m-.09-.95a.28.28,0,0,0-.11-.24c-.07-.06-.17-.08-.31.19H50v1h.51c.07-.61.13-.62.18-.64a.24.24,0,0,0,.12-.07.23.23,0,0,0,.07-.1.35.35,0,0,0,0-.14"/><path class="cls-5" d="M52,139.81v-3h0v1h0v1h0"/><path class="cls-5" d="M55,139.06a.75.75,0,0,0,.23,0,1,1,0,0,0,.17-.1.76.76,0,0,0,.11-.14.55.55,0,0,0,.08-.15l.41.15a1.41,1.41,0,0,1-.13.24,1,1,0,0,1-.2.2,1.06,1.06,0,0,1-.28.15,1.48,1.48,0,0,1-.39.05,1.5,1.5,0,0,1-.5-.08,1,1,0,0,1-.35-.24,1.23,1.23,0,0,1-.21-.37,1.72,1.72,0,0,1-.07-.47,1.41,1.41,0,0,1,.07-.47.91.91,0,0,1,.2-.36,1,1,0,0,1,.35-.23,1.44,1.44,0,0,1,.49-.08,1.46,1.46,0,0,1,.38.05.86.86,0,0,1,.29.13.69.69,0,0,1,.19.19.85.85,0,0,1,.13.25l-.41.11a.83.83,0,0,0-.07-.13.34.34,0,0,0-.12-.12.67.67,0,0,0-.38-.11.65.65,0,0,0-.29.06.43.43,0,0,0-.2.15.65.65,0,0,0-.12.25,1.26,1.26,0,0,0,0,.63.83.83,0,0,0,.12.25.55.55,0,0,0,.2.17.94.94,0,0,0,.3.05"/><path class="cls-5" d="M57,137.81v2h0v-2h0"/><path class="cls-5" d="M60.4,138.26a1.4,1.4,0,0,1-.08.47.91.91,0,0,1-.22.37,1.13,1.13,0,0,1-.36.24,1.36,1.36,0,0,1-.47.08,1.44,1.44,0,0,1-.49-.08,1,1,0,0,1-.35-.24,1.07,1.07,0,0,1-.22-.37,1.61,1.61,0,0,1,0-.94,1,1,0,0,1,.22-.36,1.07,1.07,0,0,1,.35-.23,1.48,1.48,0,0,1,.49-.08,1.42,1.42,0,0,1,.48.08.86.86,0,0,1,.35.23,1,1,0,0,1,.22.36,1.36,1.36,0,0,1,.08.47m-.48,0a1.08,1.08,0,0,0,0-.32.7.7,0,0,0-.13-.24.53.53,0,0,0-.2-.16.82.82,0,0,0-.28,0,.84.84,0,0,0-.29,0,.53.53,0,0,0-.2.16.7.7,0,0,0-.13.24,1.55,1.55,0,0,0,0,.32,1.47,1.47,0,0,0,0,.32.84.84,0,0,0,.13.25A.47.47,0,0,0,59,139a.61.61,0,0,0,.28.06.65.65,0,0,0,.29-.06.56.56,0,0,0,.21-.16.71.71,0,0,0,.11-.25,1.12,1.12,0,0,0,0-.32"/><path class="cls-5" d="M62.29,139.66l-.52-.85H60v1h1v-3h.87c.14.34.26.35.36.39a.64.64,0,0,1,.26.13.54.54,0,0,1,.16.21.76.76,0,0,1,.05.27.8.8,0,0,1,0,.23.72.72,0,0,1-.11.19.47.47,0,0,1-.15.13.5.5,0,0,1-.2.08l.61.37H62m.23-1a.26.26,0,0,0-.11-.24c-.07-.05-.17-.08-.3.22H61v1h.83c.07-.64.13-.65.18-.66l.13-.07a.41.41,0,0,0,.07-.11.59.59,0,0,0,0-.14"/><path class="cls-5" d="M104.8,139a.53.53,0,0,0,.23,0,.56.56,0,0,0,.17-.09.76.76,0,0,0,.11-.14,1.09,1.09,0,0,0,.08-.15l.41.15a1,1,0,0,1-.13.23.8.8,0,0,1-.2.21,1.06,1.06,0,0,1-.28.15,1.48,1.48,0,0,1-.39,0,1.5,1.5,0,0,1-.5-.08A.9.9,0,0,1,104,139a1.07,1.07,0,0,1-.21-.36,1.72,1.72,0,0,1-.07-.47,1.41,1.41,0,0,1,.07-.47.91.91,0,0,1,.2-.36.86.86,0,0,1,.35-.23,1.44,1.44,0,0,1,.49-.08,1.48,1.48,0,0,1,.38,0,.91.91,0,0,1,.28.13.64.64,0,0,1,.2.2.75.75,0,0,1,.13.25l-.41.11a.54.54,0,0,0-.07-.13.34.34,0,0,0-.12-.12.67.67,0,0,0-.38-.11.84.84,0,0,0-.29.05.46.46,0,0,0-.2.16.68.68,0,0,0-.12.24,1.3,1.3,0,0,0,0,.64.83.83,0,0,0,.12.25.53.53,0,0,0,.2.16.73.73,0,0,0,.3.06"/><path class="cls-5" d="M107.69,139.38l-.2-.57h-.85l-.2,1H106l.81-3h.55l.82,2H108m-.84-.64,0-.11,0-.11a.64.64,0,0,0,0-.07v0a.64.64,0,0,0,0,.07l0,.11a.36.36,0,0,0,0,.11l-.22.64h.64l-.22-.64"/><path class="cls-5" d="M110,139.28l1-1.36v-.17c-.69-.05-.69-.11-.68-.15v-.17l-.06.24,0,.1s0,.07,0,.1l0,.09,0,.07-.4.78h-.34L109,138l0-.07,0-.09,0-.1a.3.3,0,0,1,0-.1,1.55,1.55,0,0,1-.07-.23v.34c0,.05,0,.1.14.14v1.89h0v-3h.08l.4,1.48,0,.12,0,.14,0,.16,0-.16,0-.06,0-.07s0,0,0-.07l0,0,.39-.49h.9v1h-1"/><path class="cls-5" d="M111,138.81v-2h1v1h0v1h1v1h-2"/><path class="cls-5" d="M114.87,139.66l-.52-.85H114v1h0v-3h.45a.52.52,0,0,0,.36.27.68.68,0,0,1,.27.13.51.51,0,0,1,.15.21.61.61,0,0,1,.06.28.85.85,0,0,1,0,.23,1,1,0,0,1-.1.18,1.07,1.07,0,0,1-.16.14l-.2.08.61.48H115m-.19-1.09a.3.3,0,0,0-.1-.25c-.07-.05-.18-.08-.31-.66H114v1h.42c.07.24.13.24.17.22a.32.32,0,0,0,.13-.07.26.26,0,0,0,.07-.11.27.27,0,0,0,0-.13"/><path class="cls-5" d="M117.27,139.38l-.2-.57h-.86l-.19,1h-.47l.81-3h.55l.82,2H117m-.26-.64,0-.11,0-.11a.25.25,0,0,1,0-.07v0l0,.07a.26.26,0,0,1,0,.11l0,.11-.22.64H117l-.22-.64"/><path class="cls-5" d="M119,139.25l1-1.35v-.17c-.11,0-.11-.11-.11-.15a1,1,0,0,0,0-.17l-.06.24,0,.1,0,.1s0,.06,0,.09l0,.07-.4.8H119l-.4-.8,0-.07a.29.29,0,0,0,0-.09l0-.1,0-.1-.06-.23v.34c0,.05,0,.1-.44.14v1.91h1v-3h-.35l.41,1.46,0,.12,0,.14a.94.94,0,0,0,0,.16l0-.16,0-.07,0-.06a.64.64,0,0,1,0-.07l0-.05.39-.47H120v1h0"/><path class="cls-5" d="M122.32,139.38l-.2-.57h-.85l-.2,1h-.46l.81-3H122l.82,2H122m-.2-.64,0-.11,0-.11,0-.07v0a.25.25,0,0,1,0,.07l0,.11a.76.76,0,0,1,0,.11l-.21.64H122l-.22-.64"/><path class="cls-5" d="M125,139.24l-1-1.72s0,.1,0,.14v.13a.71.71,0,0,1,0,.14v.88h-1v-2h.62l1,1.93s0-.09,0-.14,0-.08,0-.14a2.56,2.56,0,0,0-.59-.15v-1.5h1v2h-1"/><path class="cls-5" d="M105.69,147.74a1.26,1.26,0,0,1-.09.49.86.86,0,0,1-.23.35.87.87,0,0,1-.34.22.58.58,0,0,1-.43,0H104v-2h.5a.44.44,0,0,1,.48-.11,1.1,1.1,0,0,1,.37.2.86.86,0,0,1,.25.34,1.49,1.49,0,0,1,.09.5m-.48,0a.9.9,0,0,0,0-.34.76.76,0,0,0-.15-.23.58.58,0,0,0-.23-.13.41.41,0,0,1-.29-.23H104v2h.56c.09-.3.18-.31.26-.35a.6.6,0,0,0,.21-.14.66.66,0,0,0,.13-.25.85.85,0,0,0,0-.33"/><path class="cls-5" d="M107.63,148.38l-.2-.57h-.86l-.19,1h-.47l.81-2h.55l.82,2H108m-.9-1.64,0-.11,0-.11a.25.25,0,0,1,0-.07v0l0,.07a.23.23,0,0,1,0,.11l0,.11-.22.64h.64l-.22-.64"/><path class="cls-5" d="M109,146.81v2h0v-2h-1v-1h2v1h-1"/><path class="cls-5" d="M110,148.81v-2h2v1h0v1h-2"/><path class="cls-5" d="M48.15,148.36a.6.6,0,0,1-.06.27.46.46,0,0,1-.17.22,1,1,0,0,1-.3.14,1.8,1.8,0,0,1-.43,0,2.21,2.21,0,0,1-.39,0,1.1,1.1,0,0,1-.29-.12.73.73,0,0,1-.2-.19.81.81,0,0,1-.11-.27l.45-.07a.52.52,0,0,0,.06.13.35.35,0,0,0,.1.11.59.59,0,0,0,.16.07.79.79,0,0,0,.23,0,.76.76,0,0,0,.37-.07.25.25,0,0,0,.12-.23.2.2,0,0,0,0-.15.3.3,0,0,0-.13-.09l-.2-.07-.23,0-.19-.05-.18-.06a.8.8,0,0,1-.16-.08.45.45,0,0,1-.13-.11.42.42,0,0,1-.09-.16.66.66,0,0,1,0-.21.54.54,0,0,1,.25-.48.86.86,0,0,1,.28-.11,2,2,0,0,1,.36,0,1.43,1.43,0,0,1,.38,0,.67.67,0,0,1,.26.1.49.49,0,0,1,.17.18.85.85,0,0,1,.09.24l-.46.06a.34.34,0,0,0-.14-.21.52.52,0,0,0-.31-.08.56.56,0,0,0-.2,0,.32.32,0,0,0-.13,0,.28.28,0,0,0-.07.09.18.18,0,0,0,0,.1.21.21,0,0,0,0,.14.35.35,0,0,0,.11.09l.17.06.22,0,.21,0,.19.06a1,1,0,0,1,.18.08A.53.53,0,0,1,48,148a.42.42,0,0,1,.09.16.53.53,0,0,1,0,.23"/><path class="cls-5" d="M50.67,147.87a1.4,1.4,0,0,1-.08.47.91.91,0,0,1-.22.37A1.13,1.13,0,0,1,50,149a1.4,1.4,0,0,1-.47.08,1.22,1.22,0,0,1-.49-.09.88.88,0,0,1-.36-.24,1.07,1.07,0,0,1-.21-.36,1.45,1.45,0,0,1-.07-.47,1.41,1.41,0,0,1,.07-.47,1,1,0,0,1,.22-.36.86.86,0,0,1,.35-.23,1.44,1.44,0,0,1,.49-.08,1.21,1.21,0,0,1,.48.08.86.86,0,0,1,.35.23,1,1,0,0,1,.22.36,1.36,1.36,0,0,1,.08.47m-.48,0a1,1,0,0,0,0-.32.62.62,0,0,0-.13-.24.53.53,0,0,0-.2-.16.64.64,0,0,0-.28-.05.84.84,0,0,0-.29.05.65.65,0,0,0-.21.16.9.9,0,0,0-.12.24,1.08,1.08,0,0,0,0,.32,1.55,1.55,0,0,0,0,.32.66.66,0,0,0,.13.25.53.53,0,0,0,.2.16.68.68,0,0,0,.29.06.65.65,0,0,0,.29-.06.53.53,0,0,0,.2-.16.62.62,0,0,0,.12-.26,1,1,0,0,0,0-.31"/><path class="cls-5" d="M52,149a1.53,1.53,0,0,1-.38,0,.86.86,0,0,1-.3-.16.68.68,0,0,1-.2-.27.94.94,0,0,1-.07-.39v-1.35h0v1.31c.47.09.48.17.5.24a.55.55,0,0,0,.1.17.54.54,0,0,0,.16.1.64.64,0,0,0,.2,0,.46.46,0,0,0,.21,0,.37.37,0,0,0,.17-.1.42.42,0,0,0,.11-.17c0-.07.55-.25.55-.25v-1.29h0v1.32a1,1,0,0,1-.07.4.83.83,0,0,1-.21.28,1,1,0,0,1-.31.16A1.36,1.36,0,0,1,52,149"/><path class="cls-5" d="M55,149l-1-1.72s0,.09,0,.14v.13a.57.57,0,0,1,0,.13v1.14h0v-2h-.1l1,1.68c0-.05,0-.09,0-.14a.61.61,0,0,1,0-.14c0-.05.13-.16.13-.16v-1.24h1v2H55"/><path class="cls-5" d="M57.71,147.84a1.54,1.54,0,0,1-.08.5,1,1,0,0,1-.23.35.91.91,0,0,1-.35.22.35.35,0,0,1-.43-.1H56v-2h.52a.78.78,0,0,1,.48,0,1,1,0,0,1,.38.2,1,1,0,0,1,.24.34,1.22,1.22,0,0,1,.09.49m-.47,0a.86.86,0,0,0-.06-.34.59.59,0,0,0-.14-.23.65.65,0,0,0-.23-.13c-.09,0-.19,0-.29-.34H56v2h.58a.42.42,0,0,1,.26-.24.51.51,0,0,0,.21-.15.57.57,0,0,0,.14-.24,1.14,1.14,0,0,0,.05-.33"/><path class="cls-5" d="M48.06,158.07a.87.87,0,0,1-.05.28.72.72,0,0,1-.14.24,1,1,0,0,1-.26.16,1,1,0,0,1-.36.06H46v-2h1.22a1.4,1.4,0,0,1,.38.05.72.72,0,0,1,.26.14.57.57,0,0,1,.15.23.88.88,0,0,1,.05.29m-.47.27a.32.32,0,0,0-.11-.26c-.06-.06-.17-.09-.31-.72H47v1h.19c.07.35.13.34.18.33a.36.36,0,0,0,.12-.08.25.25,0,0,0,.08-.12.77.77,0,0,0,0-.15"/><path class="cls-5" d="M49.93,159.66l-.52-.85H49v1h0v-3h.51a.5.5,0,0,0,.36.31.68.68,0,0,1,.27.13.51.51,0,0,1,.15.21.61.61,0,0,1,.05.28.85.85,0,0,1,0,.23.77.77,0,0,1-.26.32l-.2.08.61.44H50m-.13-1.05a.28.28,0,0,0-.11-.25c-.07,0-.17-.08-.3-.7H49v1h.47c.07.28.13.28.18.26a.4.4,0,0,0,.13-.07.41.41,0,0,0,.07-.11.3.3,0,0,0,0-.13"/><path class="cls-5" d="M52.92,158.17a1.51,1.51,0,0,1-.08.48,1.09,1.09,0,0,1-.22.36,1.13,1.13,0,0,1-.36.24,1.4,1.4,0,0,1-.47.08,1.5,1.5,0,0,1-.5-.08,1.09,1.09,0,0,1-.35-.24,1.23,1.23,0,0,1-.21-.37,1.61,1.61,0,0,1,0-.94,1,1,0,0,1,.22-.36,1,1,0,0,1,.35-.23,1.42,1.42,0,0,1,.48-.08,1.44,1.44,0,0,1,.49.08.86.86,0,0,1,.35.23,1,1,0,0,1,.22.36,1.4,1.4,0,0,1,.08.47m-.48,0a1.07,1.07,0,0,0,0-.32.55.55,0,0,0-.12-.24.53.53,0,0,0-.2-.16.84.84,0,0,0-.29,0,.82.82,0,0,0-.28,0,.65.65,0,0,0-.21.16.83.83,0,0,0-.12.25,1,1,0,0,0,0,.31,1,1,0,0,0,0,.32.66.66,0,0,0,.13.25.55.55,0,0,0,.2.17.82.82,0,0,0,.28.05.67.67,0,0,0,.3-.06.53.53,0,0,0,.2-.16.58.58,0,0,0,.12-.25,1.12,1.12,0,0,0,0-.32"/><path class="cls-5" d="M55.26,158.16a1.48,1.48,0,0,1-.08.49A1,1,0,0,1,55,159a.91.91,0,0,1-.35.22c-.13.05-.27.07-.42-.41H53v-2h1.08a.67.67,0,0,0,.47.31,1.15,1.15,0,0,1,.38.2,1,1,0,0,1,.24.34,1.28,1.28,0,0,1,.09.5m-.47,0a1.16,1.16,0,0,0,0-.34.61.61,0,0,0-.15-.22.68.68,0,0,0-.23-.14c-.09,0-.19,0-.29-.65H54v2h.14a.19.19,0,0,0,.26.07.56.56,0,0,0,.2-.14.68.68,0,0,0,.14-.25,1,1,0,0,0,0-.33"/><path class="cls-5" d="M55,158.81h1v1h0"/><path class="cls-5" d="M57.56,159a.53.53,0,0,0,.23,0,.46.46,0,0,0,.17-.09.76.76,0,0,0,.11-.14.55.55,0,0,0,.08-.15l.41.15a1,1,0,0,1-.13.23.8.8,0,0,1-.2.21,1.06,1.06,0,0,1-.28.15,1.48,1.48,0,0,1-.39,0,1.5,1.5,0,0,1-.5-.08.9.9,0,0,1-.35-.25,1.07,1.07,0,0,1-.21-.36,1.61,1.61,0,0,1,0-.94.91.91,0,0,1,.2-.36.86.86,0,0,1,.35-.23,1.65,1.65,0,0,1,.87,0,1.11,1.11,0,0,1,.29.13.72.72,0,0,1,.19.2.85.85,0,0,1,.13.25l-.41.11a.54.54,0,0,0-.07-.13.34.34,0,0,0-.12-.12l-.16-.08a.78.78,0,0,0-.22,0,.84.84,0,0,0-.29.05.53.53,0,0,0-.2.16.68.68,0,0,0-.12.24,1.72,1.72,0,0,0,0,.64.83.83,0,0,0,.12.25.53.53,0,0,0,.2.16.73.73,0,0,0,.3.06"/><path class="cls-5" d="M61,158.15a1.24,1.24,0,0,1-.08.48,1,1,0,0,1-.22.36.91.91,0,0,1-.36.24,1.32,1.32,0,0,1-.47.08,1.23,1.23,0,0,1-.49-.08,1,1,0,0,1-.35-.24,1.07,1.07,0,0,1-.22-.37,1.7,1.7,0,0,1-.07-.46,1.73,1.73,0,0,1,.07-.48,1.09,1.09,0,0,1,.22-.36,1.18,1.18,0,0,1,.35-.23,1.53,1.53,0,0,1,.49-.08,1.42,1.42,0,0,1,.48.08,1.11,1.11,0,0,1,.36.23,1.09,1.09,0,0,1,.22.36,1.41,1.41,0,0,1,.07.47m-.48,0a1.08,1.08,0,0,0,0-.32.9.9,0,0,0-.12-.24.51.51,0,0,0-.21-.15.61.61,0,0,0-.28-.06.65.65,0,0,0-.29.06.43.43,0,0,0-.2.15.66.66,0,0,0-.13.25,1.46,1.46,0,0,0,0,.31,1.14,1.14,0,0,0,0,.33.9.9,0,0,0,.12.24.68.68,0,0,0,.21.17.61.61,0,0,0,.28.06.83.83,0,0,0,.29-.06.58.58,0,0,0,.21-.17.83.83,0,0,0,.12-.25,1.58,1.58,0,0,0,0-.32"/><path class="cls-5" d="M62,158.81h0v1H61"/><path class="cls-6" d="M154,81.63a1.5,1.5,0,0,1-3,0v0a1.5,1.5,0,0,1,3,0Z"/><path class="cls-7" d="M53.81,46.31a8.73,8.73,0,0,0-8.35,6.33l-1.42,5L148.29,87.35h0l.1,0c4.62,1.32,9.21-.62,10.25-4.29a6.09,6.09,0,0,0-.54-4.51s0,0,0,0,0,0,0,0a8.85,8.85,0,0,0-5.39-4.36L56.35,46.66a9.29,9.29,0,0,0-1.77-.32l-.77,0Z"/><path class="cls-8" d="M54.54,46.8a8.26,8.26,0,0,0-8.62,6l-1.32,4.5,103.75,29.6.07,0,.12,0c4.42,1.26,8.7-.61,9.66-4a5.62,5.62,0,0,0-.5-4.16,8.32,8.32,0,0,0-5.13-4.18L56.23,47.12a9.14,9.14,0,0,0-1.69-.32Z"/></g><text class="cls-9" transform="translate(5.4 276.13)">Image Not Availabe</text><rect id="square" class="cls-10" x="42" y="187" width="117" height="46" rx="13.9" ry="13.9"/><text class="cls-11" transform="translate(63.2 218.58)">Sorry</text></svg>